<svg xmlns="http://www.w3.org/2000/svg" width="128" height="128" viewBox="0 0 128 128">
  <defs>
    <linearGradient id="bg" x1="0" y1="0" x2="1" y2="1">
      <stop offset="0%" stop-color="#FF6B35"/>
      <stop offset="100%" stop-color="#F7C59F"/>
    </linearGradient>
  </defs>
  <!-- Rounded square background -->
  <rect width="128" height="128" rx="24" fill="url(#bg)"/>
  <!-- Burger bun top -->
  <ellipse cx="64" cy="52" rx="28" ry="10" fill="#D9782B"/>
  <!-- Burger patty -->
  <rect x="38" y="54" width="52" height="10" rx="3" fill="#8B4513"/>
  <!-- Cheese -->
  <rect x="36" y="60" width="56" height="4" rx="1" fill="#FFD700"/>
  <!-- Lettuce -->
  <rect x="40" y="64" width="48" height="5" rx="2" fill="#4CAF50"/>
  <!-- Bottom bun -->
  <ellipse cx="64" cy="74" rx="26" ry="8" fill="#D9782B"/>
  <!-- Plate line -->
  <ellipse cx="64" cy="82" rx="30" ry="4" fill="none" stroke="#fff" stroke-width="1.5" opacity="0.6"/>
  <!-- Steam lines -->
  <path d="M55 38 Q57 32 55 26" stroke="#fff" stroke-width="2" fill="none" stroke-linecap="round" opacity="0.5"/>
  <path d="M64 36 Q66 28 64 22" stroke="#fff" stroke-width="2" fill="none" stroke-linecap="round" opacity="0.6"/>
  <path d="M73 38 Q75 32 73 26" stroke="#fff" stroke-width="2" fill="none" stroke-linecap="round" opacity="0.5"/>
  <!-- Star accent -->
  <path d="M100 20 L103 28 L111 28 L105 33 L107 41 L100 36 L93 41 L95 33 L89 28 L97 28 Z" fill="#fff" opacity="0.8"/>
</svg>
